<?xml version="1.0" encoding="utf-8"?>
<!-- Generator: Adobe Illustrator 26.0.1, SVG Export Plug-In . SVG Version: 6.00 Build 0)  -->
<svg version="1.1" id="Layer_1" xmlns="http://www.w3.org/2000/svg" xmlns:xlink="http://www.w3.org/1999/xlink" x="0px" y="0px"
	 viewBox="0 0 800 800" style="enable-background:new 0 0 800 800;" xml:space="preserve">
<style type="text/css">
	.st0{fill:#4762AF;}
	.st1{fill:#6982C8;}
	.st2{fill:#C4CADD;}
	.st3{fill:#848BA6;}
	.st4{fill:#C4CBDC;}
	.st5{fill:#273F73;}
	.st6{fill:#677FC4;}
	.st7{fill:#71E0FF;}
</style>
<path class="st0" d="M407.2,505.6v293.6l254.9-141.1l-0.4-294.2L407.2,505.6z"/>
<path class="st1" d="M209.3,383.5l-32.7-31l39.2-12.4L209.3,383.5z M612.3,342.2l2.9,34.4l17-15.7L612.3,342.2L612.3,342.2z"/>
<path class="st0" d="M160.8,648c-10.2,5.7-11.5,14.2-2.8,19l233.5,129.6c8.7,4.8,24.1,4.1,34.3-1.6l227.9-126.5
	c10.2-5.7,11.5-14.2,2.8-19L423,520c-8.7-4.8-24.1-4.1-34.3,1.6L160.8,648z"/>
<path class="st2" d="M380.1,476c0,8.6,5.3,18.6,11.8,22.4l211.5,121.3c6.5,3.7,11.8-0.3,11.8-8.9V145.1c0-8.6-5.3-18.6-11.8-22.4
	L391.9,1.4c-6.5-3.7-11.8,0.3-11.8,8.9V476z"/>
<path class="st2" d="M391.3,6.5l-5.4,6.2l-12.5-5.8l11.4-6.5L391.3,6.5z"/>
<path class="st3" d="M369.3,482.2c0,8.6,5.3,18.6,11.8,22.4l211.5,121.3c6.5,3.7,11.8-0.3,11.8-8.9V151.3c0-8.6-5.3-18.6-11.8-22.4
	L381,7.6c-6.5-3.7-11.8,0.3-11.8,8.9V482.2z"/>
<path class="st2" d="M325.3,58.9v465.7c0,8.6,5.3,18.6,11.8,22.4l211.5,121.3c6.5,3.7,11.8-0.3,11.8-8.9V193.7
	c0-8.6-5.3-18.6-11.8-22.4L337.1,50C330.6,46.3,325.3,50.3,325.3,58.9L325.3,58.9z"/>
<path class="st2" d="M336.5,55.2l-5.4,6.2l-12.5-5.8l11.4-6.5C330,49.1,336.5,55.2,336.5,55.2z"/>
<path class="st3" d="M314.5,530.8c0,8.6,5.3,18.6,11.8,22.4l211.5,121.3c6.5,3.7,11.8-0.3,11.8-8.9V199.9c0-8.6-5.3-18.6-11.8-22.4
	L326.3,56.2c-6.5-3.7-11.8,0.3-11.8,8.9V530.8z"/>
<path class="st2" d="M270.5,573.2c0,8.6,5.3,18.6,11.8,22.4l211.5,121.3c6.5,3.7,11.8-0.3,11.8-8.9V242.3c0-8.6-5.3-18.6-11.8-22.4
	L282.3,98.6c-6.5-3.7-11.8,0.3-11.8,8.9V573.2z"/>
<path class="st2" d="M275.2,97.7l6.5,6.1l-5.4,6.2l-12.5-5.8L275.2,97.7L275.2,97.7z"/>
<path class="st3" d="M259.7,579.4c0,8.6,5.3,18.6,11.7,22.4L483,723.1c6.5,3.7,11.7-0.3,11.7-8.9V248.5c0-8.6-5.3-18.6-11.7-22.4
	L271.5,104.8c-6.5-3.7-11.7,0.3-11.7,8.9V579.4z"/>
<path class="st2" d="M215.8,621.8c0,8.6,5.3,18.6,11.7,22.4L439,765.5c6.5,3.7,11.7-0.3,11.7-8.9V291c0-8.6-5.3-18.6-11.7-22.4
	L227.5,147.3c-6.5-3.7-11.7,0.3-11.7,8.9V621.8z"/>
<path class="st2" d="M227,152.4l-5.4,6.2l-12.5-5.8l11.4-6.5L227,152.4z"/>
<path class="st3" d="M204.9,628.1c0,8.6,5.3,18.6,11.8,22.4l211.5,121.3c6.5,3.7,11.8-0.3,11.8-8.9V297.2c0-8.6-5.3-18.6-11.8-22.4
	L216.7,153.5c-6.5-3.7-11.8,0.3-11.8,8.9V628.1z"/>
<path class="st0" d="M408.6,605.4l-256.3,53.9l0.4-296.4L408.6,502V605.4z"/>
<path class="st1" d="M432.5,497.2l-1,294.6c-8.9,4.7-17.4,8.2-25.2,7.9c-4-0.2-7.7-0.6-11.1-1.6c-10.4-3.1-17.3-9.1-17.3-9.1V494.9
	L432.5,497.2L432.5,497.2z"/>
<path class="st0" d="M431.7,500.8v62.9l188.6-108.9v-62.9L431.7,500.8L431.7,500.8z M431.7,723.5v65.2l188.6-108.9v-65.2
	L431.7,723.5L431.7,723.5z"/>
<path class="st0" d="M431.7,761.3l15.2-8.8V542.1l-15.2,8.8V761.3z"/>
<path class="st1" d="M655.3,353.2c8.9,5.1,7.7,14-2.5,19.9L425.3,504.5c-10.2,5.9-25.7,6.5-34.6,1.4L158.2,371.7
	c-8.9-5.1-7.7-14.1,2.5-20l44.2-26.8v20.8l-9.6,5.5c-8.8,5.1-9.7,12.8-2.1,17.1L393,483.8c7.6,4.4,20.9,3.8,29.7-1.2l195.5-112.9
	c8.8-5.1,9.7-12.8,2.1-17.1l-5.2-3V330L655.3,353.2z"/>
<path class="st0" d="M182.2,649.1L378,748.8V606L182.2,649.1z M576.4,637.4l-16.2-9.6v18.9L576.4,637.4z"/>
<path class="st3" d="M549,621.6v31.7l-9.7,5.5L452,608.3l0.7-43.9L549,621.6L549,621.6z M493.9,685.4L452,709.6v-86.6l41.9,24.2
	V685.4z"/>
<path class="st2" d="M604.1,466.7l0.2,159.3l10.8-9.1V461.2L604.1,466.7L604.1,466.7z"/>
<path class="st3" d="M604.1,466.7v68.8L544.3,501L604.1,466.7L604.1,466.7z M604.1,551.2l-73.2-42.3l-19.4,11.2l92.6,53.9V551.2
	L604.1,551.2z"/>
<path class="st4" d="M549,498.4V653l11.3-6.5V492L549,498.4z M493.9,530.1v155l11.5-6.7V523.6L493.9,530.1z"/>
<path class="st1" d="M624,545.3v56.1c0,9.5-5.8,20.6-12.9,24.7l-155.8,90c-7.1,4.1-12.9-0.3-12.9-9.9v-56.2l9.6-5.5v48.9
	c0,8.5,5.2,12.5,11.5,8.8L603,621.8c6.4-3.7,11.5-13.6,11.5-22.1v-48.9L624,545.3L624,545.3z"/>
<path class="st1" d="M442.5,650.5v-82.2c0-9.5,5.8-20.6,12.9-24.7l155.8-90c7.1-4.1,12.9,0.3,12.9,9.9v82.2l-9.6,5.5v-74.9
	c0-8.5-5.2-12.5-11.5-8.8l-139.4,80.5c-6.4,3.7-11.5,13.6-11.5,22.1V645L442.5,650.5L442.5,650.5z"/>
<path class="st5" d="M358.9,715.6l-25.2,14.5V600.4c0-22.2-14-27.5-15.4-26.7c-1.4,0.8-179.4-103.6-179.4-103.6s12.3-6.1,22.3-12.9
	c10-6.9,18.2,0.7,18.2,0.7L333,546.6c39.3,15.8,34.1,39.3,34.1,39.3v110.9C367.1,708.4,358.9,715.6,358.9,715.6z"/>
<path class="st6" d="M134,603.7c0,8.5,5.2,18.4,11.6,22.1L325,729.4c6.4,3.7,11.6-0.2,11.6-8.7V597.3c0-8.5-5.2-18.4-11.6-22.1
	L145.6,471.6c-6.4-3.7-11.6,0.2-11.6,8.7V603.7z"/>
<path class="st7" d="M173.9,536.6l114.8,66.3c4.3,2.5,7.9-0.2,7.9-6c0-5.8-3.5-12.5-7.9-15.1l-114.8-66.3c-4.3-2.5-7.9,0.2-7.9,6
	C166,527.4,169.6,534.1,173.9,536.6z M173.9,577.3l114.8,66.3c4.3,2.5,7.9-0.2,7.9-6c0-5.8-3.5-12.5-7.9-15.1l-114.8-66.3
	c-4.3-2.5-7.9,0.2-7.9,6C166,568,169.6,574.8,173.9,577.3z M173.9,616.6l114.8,66.3c4.3,2.5,7.9-0.2,7.9-6s-3.5-12.5-7.9-15.1
	l-114.8-66.3c-4.3-2.5-7.9,0.2-7.9,6S169.6,614.1,173.9,616.6z"/>
</svg>
