<?xml version="1.0" encoding="utf-8"?>
<!-- Generator: Adobe Illustrator 26.0.1, SVG Export Plug-In . SVG Version: 6.00 Build 0)  -->
<svg version="1.1" id="Layer_1" xmlns="http://www.w3.org/2000/svg" xmlns:xlink="http://www.w3.org/1999/xlink" x="0px" y="0px"
	 viewBox="0 0 800 800" style="enable-background:new 0 0 800 800;" xml:space="preserve">
<style type="text/css">
	.st0{fill:#414042;}
	.st1{fill:#231F20;}
	.st2{fill:#FFF200;}
	.st3{fill:#FFBE00;}
</style>
<g id="price-down">
	<path class="st0" d="M757.8,422.2c-6.1-15.9-21.4-26.3-38.4-26.2h-46.1V121c0-34.5-28-62.5-62.5-62.5h-425
		c-34.5,0-62.5,28-62.5,62.5v275H77c-22.7-0.1-41.2,18.3-41.3,41c0,11.5,4.8,22.6,13.3,30.4l287.8,266.1c16.5,16,38.5,25,61.5,25
		l0,0c22.8-0.1,44.7-9,61-25l287.5-266.8C759.1,455.5,763.5,437.9,757.8,422.2z"/>
	<path class="st1" d="M747.4,467.5L459.9,734.2c-16.6,15.8-38.7,24.6-61.6,24.2l0,0v-700h212.5c34.5,0,62.5,28,62.5,62.5v275h46.1
		c22.8,0,41.2,18.5,41.2,41.3C760.6,448.8,755.8,459.7,747.4,467.5z"/>
	<path class="st2" d="M473.2,408.5V421c0,41.4-33.6,75-75,75v12.5c0,13.8-11.2,25-25,25s-25-11.2-25-25V496h-12.5
		c-13.8,0-25-11.2-25-25s11.2-25,25-25h62.5c13.8,0,25-11.2,25-25v-12.5c0-13.8-11.2-25-25-25h-25c-41.4,0-75-33.6-75-75
		s33.6-75,75-75V221c0-13.8,11.2-25,25-25c13.8,0,25,11.2,25,25v12.5h12.5c13.8,0,25,11.2,25,25s-11.2,25-25,25h-62.5
		c-13.8,0-25,11.2-25,25s11.2,25,25,25h25C439.7,333.5,473.2,367.1,473.2,408.5z"/>
	<path class="st3" d="M460.8,258.5c0-13.8-11.2-25-25-25h-12.5V221c0-13.8-11.2-25-25-25v87.5h37.5
		C449.6,283.5,460.8,272.3,460.8,258.5z"/>
	<path class="st3" d="M398.2,333.5v50c13.8,0,25,11.2,25,25V421c0,13.8-11.2,25-25,25v50c41.4,0,75-33.6,75-75v-12.5
		C473.2,367.1,439.7,333.5,398.2,333.5z"/>
</g>
</svg>
